<svg width="1600" height="520" viewBox="0 0 1600 520" xmlns="http://www.w3.org/2000/svg">
  <defs>
    <radialGradient id="bg" cx="50%" cy="45%" r="75%">
      <stop offset="0" stop-color="#2b2926"/>
      <stop offset="0.48" stop-color="#111"/>
      <stop offset="1" stop-color="#020304"/>
    </radialGradient>
    <linearGradient id="cream" x1="250" y1="90" x2="1370" y2="330" gradientUnits="userSpaceOnUse">
      <stop stop-color="#fff7e8"/>
      <stop offset="0.55" stop-color="#e8d5b8"/>
      <stop offset="1" stop-color="#fff3df"/>
    </linearGradient>
    <filter id="grain" x="-20%" y="-20%" width="140%" height="140%">
      <feTurbulence type="fractalNoise" baseFrequency="0.82" numOctaves="3" seed="8" result="noise"/>
      <feColorMatrix in="noise" type="matrix" values=".25 0 0 0 0 0 .25 0 0 0 0 0 .25 0 0 0 0 0 .24 0" result="grain"/>
      <feBlend in="SourceGraphic" in2="grain" mode="overlay"/>
    </filter>
    <filter id="glow" x="-20%" y="-30%" width="140%" height="160%">
      <feDropShadow dx="0" dy="0" stdDeviation="4" flood-color="#fff0d4" flood-opacity="0.38"/>
      <feDropShadow dx="0" dy="9" stdDeviation="8" flood-color="#000" flood-opacity="0.82"/>
    </filter>
    <filter id="blur"><feGaussianBlur stdDeviation="10"/></filter>
    <style>
      .title{font-family:'Brush Script MT','Segoe Script','Lucida Handwriting',cursive;font-weight:900;letter-spacing:-8px;}
      .sub{font-family:Georgia,'Times New Roman',serif;font-weight:800;letter-spacing:9px;}
    </style>
  </defs>
  <rect width="1600" height="520" fill="url(#bg)"/>
  <rect width="1600" height="520" fill="#080808" filter="url(#grain)" opacity=".95"/>
  <path d="M-90 412C150 310 315 230 535 180C760 128 965 82 1170 15C1325-36 1450-70 1700-120" stroke="#000" stroke-width="85" stroke-linecap="round" opacity=".58"/>
  <path d="M-80 78C190 175 450 212 720 210C1010 208 1240 150 1660 25" stroke="#050505" stroke-width="92" stroke-linecap="round" opacity=".72"/>
  <path d="M0 450C165 415 250 360 400 370C540 380 610 450 780 430C930 413 1000 340 1160 345C1310 350 1425 405 1600 385V520H0Z" fill="#d0c5b5" opacity=".11"/>
  <ellipse cx="260" cy="112" rx="330" ry="55" fill="#eee4d2" opacity=".16" filter="url(#blur)"/>
  <ellipse cx="1210" cy="132" rx="380" ry="65" fill="#eee4d2" opacity=".13" filter="url(#blur)"/>
  <g stroke="#efe4d2" stroke-width="4" stroke-linecap="round" fill="none" opacity=".72">
    <path d="M1290 84C1304 72 1320 72 1332 84"/>
    <path d="M1380 104C1390 94 1403 94 1414 104"/>
    <path d="M1462 78C1470 71 1479 71 1488 78"/>
  </g>
  <path d="M70 406C260 335 430 300 640 282C900 260 1090 218 1520 92" stroke="#fff3df" stroke-width="9" stroke-linecap="round" opacity=".64"/>
  <path d="M80 420C275 370 465 340 700 330C940 319 1120 270 1505 135" stroke="#fff3df" stroke-width="4" stroke-linecap="round" opacity=".25"/>
  <g fill="#fff3df" opacity=".9">
    <circle cx="405" cy="98" r="6"/>
    <circle cx="515" cy="126" r="4"/>
    <circle cx="1040" cy="102" r="5"/>
    <circle cx="1260" cy="220" r="3"/>
  </g>
  <text x="800" y="300" text-anchor="middle" class="title" font-size="230" fill="url(#cream)" filter="url(#glow)">BinkaDev</text>
  <text x="800" y="405" text-anchor="middle" class="sub" font-size="35" fill="#efe4d2">Tran Hoang Hai • Software Engineering D22</text>
  <path d="M395 438C535 424 675 421 815 423C955 425 1080 432 1205 418" stroke="#efe4d2" stroke-width="7" stroke-linecap="round" opacity=".5"/>
</svg>
